<?xml version="1.0" encoding="utf-8"?>
<!-- Generator: Adobe Illustrator 23.0.6, SVG Export Plug-In . SVG Version: 6.00 Build 0)  -->
<svg version="1.1" id="divider-2_x5F_desktop_x5F_white"
	 xmlns="http://www.w3.org/2000/svg" xmlns:xlink="http://www.w3.org/1999/xlink" x="0px" y="0px" viewBox="0 0 1920 16"
	 style="enable-background:new 0 0 1920 16;" xml:space="preserve">
<style type="text/css">
	.st0{filter:url(#Adobe_OpacityMaskFilter);}
	.st1{fill-rule:evenodd;clip-rule:evenodd;fill:rgb(255,255,255);}
	.st2{mask:url(#mask-2_1_);fill-rule:evenodd;clip-rule:evenodd;fill:rgb(255,255,255);}
</style>
<defs>
	<filter id="Adobe_OpacityMaskFilter" filterUnits="userSpaceOnUse" x="0" y="0" width="1920" height="16">
		<feColorMatrix  type="matrix" values="1 0 0 0 0  0 1 0 0 0  0 0 1 0 0  0 0 0 1 0"/>
	</filter>
</defs>
<mask maskUnits="userSpaceOnUse" x="0" y="0" width="1920" height="16" id="mask-2_1_">
	<g class="st0">
		<polygon id="path-1_1_" class="st1" points="0,0 1920,0 1920,16 0,16 		"/>
	</g>
</mask>
<path id="Fill-1" class="st2" d="M1814,1.2c-12,0.4-24,0.1-36.1,0.2c-12,0.1-24,0-36.1,0.1c-5.1,0-10.2,0.5-15.2,0.2
	c-16.3-1-32.5,1.4-48.8,0.9c-13.4-0.4-26.7-0.2-40.1-0.2c-4.5,0-9.1,0-13.6,0.2c-7,0.2-13.9-0.2-20.7-1.9c-2-0.5-4.2-0.7-6.3-0.7
	c-10.7,0-21.3-0.1-31.9,1.5c-7.9,1.2-15.9,1.6-23.9-0.2c-1.3-0.3-2.8-0.4-3.9,0.1c-4.4,1.8-8.9,1.6-13.5,1.5
	c-6.1-0.2-12.3,1.2-18.3-0.9c-6.3,1.8-12.7,0.6-19.1,0.7c-4,0.1-8,0.7-11.9-0.6c-0.7-0.2-1.6-0.1-2.4,0c-11.7,1.9-23.5,0.9-35.2,1.1
	c-18.2,0.3-36.3,0-54.5,0.1c-10.7,0.1-21.4,0.4-32.1,0.5c-5.3,0-10.7-0.3-16-0.4c-2.1-0.1-4.3-0.1-6.4-0.1
	c-18.4,0.3-36.9,0.6-55.3,0.9c-4.8,0.1-9.6,0-14.4,0.1c-1.3,0-2.7,0.2-4,0c-9.3-1.9-18.6-0.3-27.9-0.3c-1.8,0-3.7-0.3-5.5-0.4
	c-1-0.1-2.2-0.5-3-0.1c-4.1,1.9-8.4,1-12.7,1c-17.1,0.1-34.2,0.1-51.3,0.1c-4,0-8,0-12,0c-4.3,0-8.5-0.1-12.5,2c-2,1-4.7,1-7,1
	c-4.7-0.1-9.1,0.6-12.8,3.6c-1.8,1.4-3.8,1.8-6,1.3c-4.4-1.1-8.8-2-13.1-3.4c-2.6-0.9-5.1-1.3-7.8-1.1c-5.4,0.4-10.7,0-15.9-1.2
	c-5.6-1.3-11.2-0.5-16.7,0.6c-3.8,0.7-7.4,0.7-11.1-0.1c-2.9-0.6-5.8-1.2-8.7-1.2C1010,5.8,990,5.4,970,6.6
	c-3.2,0.2-6.4-0.2-9.6-0.2c-5.3-0.1-10.7-0.2-16-0.2c-19.8,0-39.6,0-59.3,0c-1.3,0-2.7-0.1-4,0.1C871,8.2,860.9,8,850.9,6
	c-4.8-1-9.6-0.8-14.2,1.1c-7.3,2.9-14.9,0.2-22.7,0.3c-8.3,0.1-16.5,1-24.8,1.4c-3.4,0.1-7,0-10.4-0.5c-4.9-0.7-9.6-0.3-14,2.2
	c-3.7,2.1-8,2.8-12,4c-3,0.9-5.9,0.2-8.6-0.8c-3.6-1.3-7.3-1.7-11-1.3c-0.8,0.1-1.6,0.3-2.4,0.1c-7.1-1.2-14.2-6.2-21.4-4.7
	c-1.7,0.4-3.4,3.6-5,2c-0.8-0.8-3.1-0.7-4.6-0.5c-5.5,0.8-11.1-1.6-16.6-0.7c-5.4,0.9-10.6-0.4-15.9-1.3c-3.7-0.6-7.4-0.9-11.1-1.5
	c-11.6-2.1-23.5-0.7-35.2-1.7c-5.3-0.5-10.7-5.3-15.7-2.7c-0.9,0.5-2,0.6-3,0.7c-5.9,0.2-11.7,0.2-17.6,0.5
	c-5.5,0.3-11.2-0.9-16.5,1.8c-0.2,0.1-0.5,0-0.8,0c-13.3-0.9-25.7,3.8-38.4,6.5c-4.9,1-10-3.2-15-2.8c-3.7,0.3-7.3,0.7-11,1.7
	c-6.8,1.8-85,1.8-93.3-2.5c-5.1-2.7-11.1-4-17.1-2.8C382.8,6,353,8.6,348.2,6.3c-0.8-0.4-2.1,0-3.1,0c-1.9,0.1-3.8,0.6-5.6,0.4
	c-6.8-0.8-13.3,0.9-19.6,2.8c-6.6,2-13.1,2.6-19.7,1.1c-5.2-1.2-11.5-0.2-16.8,0c-9.5,0.4-19,1.1-28.6,1.6
	c-8.1,0.5-16.2,1.2-24.3,1.2c-14.4-0.1-28.9-2.1-43.5-2.1c-13,0-25.5,1.3-38.5-0.1c-14.1-1.5-88.8-9.4-98.1-9.4
	c-6.6,0-13.2,0-19.7,0H0V16h1920V1.9h-56.5C1848.9,2.1,1819.2,1,1814,1.2"/>
</svg>
