<?xml version="1.0" encoding="utf-8"?>
<!-- Generator: Adobe Illustrator 25.0.1, SVG Export Plug-In . SVG Version: 6.00 Build 0)  -->
<svg version="1.1" id="Layer_1" xmlns="http://www.w3.org/2000/svg" xmlns:xlink="http://www.w3.org/1999/xlink" x="0px" y="0px"
	 viewBox="0 0 329.1 16" style="enable-background:new 0 0 329.1 16;" xml:space="preserve">
<style type="text/css">
	.st0{fill-rule:evenodd;clip-rule:evenodd;fill:#FFFFFF;}
	.st1{filter:url(#Adobe_OpacityMaskFilter);}
	.st2{mask:url(#mask-2_1_);fill-rule:evenodd;clip-rule:evenodd;fill:#FFFFFF;}
	.st3{filter:url(#Adobe_OpacityMaskFilter_1_);}
	.st4{mask:url(#mask-2_2_);fill-rule:evenodd;clip-rule:evenodd;fill:#FFFFFF;}
	.st5{filter:url(#Adobe_OpacityMaskFilter_2_);}
	.st6{mask:url(#mask-2_3_);fill-rule:evenodd;clip-rule:evenodd;fill:#FFFFFF;}
	.st7{filter:url(#Adobe_OpacityMaskFilter_3_);}
	.st8{mask:url(#mask-2_4_);fill-rule:evenodd;clip-rule:evenodd;fill:#FFFFFF;}
	.st9{filter:url(#Adobe_OpacityMaskFilter_4_);}
	.st10{mask:url(#mask-2_5_);fill-rule:evenodd;clip-rule:evenodd;fill:#F26A2B;}
	.st11{filter:url(#Adobe_OpacityMaskFilter_5_);}
	.st12{mask:url(#mask-2_6_);fill-rule:evenodd;clip-rule:evenodd;fill:#FFFFFF;}
	.st13{filter:url(#Adobe_OpacityMaskFilter_6_);}
	.st14{mask:url(#mask-2_7_);fill-rule:evenodd;clip-rule:evenodd;fill:#FFFFFF;}
	.st15{filter:url(#Adobe_OpacityMaskFilter_7_);}
	.st16{mask:url(#mask-2_8_);fill-rule:evenodd;clip-rule:evenodd;fill:#FFFFFF;}
</style>
<desc>Created with Sketch.</desc>
<g id="Symbols">
	<g id="FOOTER_x2F_Desktop_x2F_Wide" transform="translate(-403.000000, -80.000000)">
		<g id="LOGO_x2F_HorizonWordmark_x2F_Large_x2F_White" transform="translate(403.000000, 80.000000)">
			<g id="Horizon-Logo">
				<polygon id="Fill-1" class="st0" points="16.4,0 16.4,6.3 3.8,6.3 3.8,0 0,0 0,16 3.8,16 3.8,9.5 16.4,9.5 16.4,16 20.2,16 
					20.2,0 				"/>
				<path id="Fill-2" class="st0" d="M32.2,0l-8.8,16h4.3l1.7-3.2h10.3l1.7,3.2h4.3L36.9,0H32.2z M34.6,3.2l3.5,6.6H31L34.6,3.2z"/>
				<g id="Group-24">
					<path id="Fill-3" class="st0" d="M52.3,3.4h7.1c1.4,0,3.2,0,3.2,2.3c0,2.3-1.9,2.3-3.2,2.3h-7.1V3.4z M66.5,5.8
						c0-3.3-2.4-5.5-6-5.5h-12v15.5h3.8v-4.5H59l2.8,4.5h4.5l-3.2-5C65.2,10,66.5,8.2,66.5,5.8L66.5,5.8z"/>
					<polygon id="Fill-5" class="st0" points="74.9,0.3 71,0.3 71,15.8 86.9,15.8 86.9,12.6 74.9,12.6 					"/>
					<polygon id="Fill-7" class="st0" points="90.7,15.8 107,15.8 107,12.7 94.5,12.7 94.5,9.2 104,9.2 104,6.4 94.5,6.4 94.5,3.3 
						107,3.3 107,0.3 90.7,0.3 					"/>
					<polygon id="Fill-9" class="st0" points="120.6,7.2 114.4,0.3 109.7,0.3 118.7,10.4 118.7,15.8 122.5,15.8 122.5,10.4 
						131.4,0.3 126.7,0.3 					"/>
					<path id="Fill-11" class="st0" d="M172.7,8c0,3.9-1.9,4.7-5.2,4.7h-5.9V3.4h5.9C170.9,3.4,172.7,4.1,172.7,8 M169,0.3h-11.1
						v15.5H169c5.6,0,7.6-4.2,7.6-7.8C176.6,4.5,174.6,0.3,169,0.3"/>
					<polygon id="Fill-13" class="st0" points="208.5,12.4 202.4,0.3 198,0.3 206.6,15.8 211.1,15.8 219.8,0.3 215.4,0.3 					"/>
					<g id="Clip-16">
					</g>
					<defs>
						<filter id="Adobe_OpacityMaskFilter" filterUnits="userSpaceOnUse" x="223.4" y="0.3" width="3.8" height="15.5">
							<feColorMatrix  type="matrix" values="1 0 0 0 0  0 1 0 0 0  0 0 1 0 0  0 0 0 1 0"/>
						</filter>
					</defs>
					<mask maskUnits="userSpaceOnUse" x="223.4" y="0.3" width="3.8" height="15.5" id="mask-2_1_">
						<g class="st1">
							<polygon id="path-1_1_" class="st0" points="-23.7,16 328.1,16 328.1,0.1 -23.7,0.1 							"/>
						</g>
					</mask>
					<polygon id="Fill-15" class="st2" points="223.4,15.8 227.3,15.8 227.3,0.3 223.4,0.3 					"/>
					<defs>
						<filter id="Adobe_OpacityMaskFilter_1_" filterUnits="userSpaceOnUse" x="255" y="0.1" width="19.6" height="15.9">
							<feColorMatrix  type="matrix" values="1 0 0 0 0  0 1 0 0 0  0 0 1 0 0  0 0 0 1 0"/>
						</filter>
					</defs>
					<mask maskUnits="userSpaceOnUse" x="255" y="0.1" width="19.6" height="15.9" id="mask-2_2_">
						<g class="st3">
							<polygon id="path-1_2_" class="st0" points="-23.7,16 328.1,16 328.1,0.1 -23.7,0.1 							"/>
						</g>
					</mask>
					<path id="Fill-17" class="st4" d="M264.7,0.1c-4.5,0-9.1,0.5-9.1,4.5c0,2.9,1.5,4.5,9.3,4.9c5.2,0.3,6,0.5,6,1.7
						c0,1-0.9,1.7-5.5,1.7c-5,0-6.3-0.8-6.5-2.1H255c0.1,2.8,1.6,5.2,10.1,5.2c4.9,0,9.5-0.6,9.5-5c0-4-4.1-4.3-9.8-4.6
						c-4.6-0.3-5.5-0.6-5.5-1.7c0-1,0.7-1.5,4.9-1.5c4.1,0,5.7,0.4,5.9,1.8h3.8C273.7,1.7,270.7,0.1,264.7,0.1"/>
					<defs>
						<filter id="Adobe_OpacityMaskFilter_2_" filterUnits="userSpaceOnUse" x="277.9" y="0.1" width="19.3" height="15.9">
							<feColorMatrix  type="matrix" values="1 0 0 0 0  0 1 0 0 0  0 0 1 0 0  0 0 0 1 0"/>
						</filter>
					</defs>
					<mask maskUnits="userSpaceOnUse" x="277.9" y="0.1" width="19.3" height="15.9" id="mask-2_3_">
						<g class="st5">
							<polygon id="path-1_3_" class="st0" points="-23.7,16 328.1,16 328.1,0.1 -23.7,0.1 							"/>
						</g>
					</mask>
					<path id="Fill-18" class="st6" d="M293.4,8c0,3.3-1.8,4.7-5.9,4.7c-4.2,0-5.9-1.4-5.9-4.7c0-3.3,1.7-4.7,5.9-4.7
						C291.7,3.3,293.4,4.7,293.4,8 M287.5,0.1c-6.4,0-9.7,2.7-9.7,7.9c0,5.3,3.3,8,9.7,8s9.7-2.7,9.7-8
						C297.2,2.8,293.9,0.1,287.5,0.1"/>
					<defs>
						<filter id="Adobe_OpacityMaskFilter_3_" filterUnits="userSpaceOnUse" x="301.1" y="0.3" width="19.8" height="15.5">
							<feColorMatrix  type="matrix" values="1 0 0 0 0  0 1 0 0 0  0 0 1 0 0  0 0 0 1 0"/>
						</filter>
					</defs>
					<mask maskUnits="userSpaceOnUse" x="301.1" y="0.3" width="19.8" height="15.5" id="mask-2_4_">
						<g class="st7">
							<polygon id="path-1_4_" class="st0" points="-23.7,16 328.1,16 328.1,0.1 -23.7,0.1 							"/>
						</g>
					</mask>
					<polygon id="Fill-19" class="st8" points="317.1,0.3 317.1,11.8 305.9,0.3 305.9,0.3 301.1,0.3 301.1,15.8 304.9,15.8 
						304.9,4.4 316.1,15.7 316.1,15.8 320.9,15.8 320.9,0.3 					"/>
					<defs>
						<filter id="Adobe_OpacityMaskFilter_4_" filterUnits="userSpaceOnUse" x="136.3" y="6.6" width="14" height="2.4">
							<feColorMatrix  type="matrix" values="1 0 0 0 0  0 1 0 0 0  0 0 1 0 0  0 0 0 1 0"/>
						</filter>
					</defs>
					<mask maskUnits="userSpaceOnUse" x="136.3" y="6.6" width="14" height="2.4" id="mask-2_5_">
						<g class="st9">
							<polygon id="path-1_5_" class="st0" points="0,16 351.8,16 351.8,0.1 0,0.1 							"/>
						</g>
					</mask>
					<polygon id="Fill-20" class="st10" points="136.3,9 150.3,9 150.3,6.6 136.3,6.6 					"/>
					<defs>
						<filter id="Adobe_OpacityMaskFilter_5_" filterUnits="userSpaceOnUse" x="232.9" y="0.3" width="18.6" height="15.5">
							<feColorMatrix  type="matrix" values="1 0 0 0 0  0 1 0 0 0  0 0 1 0 0  0 0 0 1 0"/>
						</filter>
					</defs>
					<mask maskUnits="userSpaceOnUse" x="232.9" y="0.3" width="18.6" height="15.5" id="mask-2_6_">
						<g class="st11">
							<polygon id="path-1_6_" class="st0" points="-23.7,16 328.1,16 328.1,0.1 -23.7,0.1 							"/>
						</g>
					</mask>
					<path id="Fill-21" class="st12" d="M247.7,8c0,3.9-1.9,4.7-5.2,4.7h-5.9V3.4h5.9C245.8,3.4,247.7,4.1,247.7,8 M243.9,0.3h-11.1
						v15.5h11.1c5.6,0,7.6-4.2,7.6-7.8C251.5,4.5,249.5,0.3,243.9,0.3"/>
					<defs>
						<filter id="Adobe_OpacityMaskFilter_6_" filterUnits="userSpaceOnUse" x="177.9" y="0.3" width="22" height="15.5">
							<feColorMatrix  type="matrix" values="1 0 0 0 0  0 1 0 0 0  0 0 1 0 0  0 0 0 1 0"/>
						</filter>
					</defs>
					<mask maskUnits="userSpaceOnUse" x="177.9" y="0.3" width="22" height="15.5" id="mask-2_7_">
						<g class="st13">
							<polygon id="path-1_7_" class="st0" points="-23.7,16 328.1,16 328.1,0.1 -23.7,0.1 							"/>
						</g>
					</mask>
					<path id="Fill-22" class="st14" d="M192.4,9.8h-7l3.5-6.4L192.4,9.8z M186.5,0.3l-8.6,15.5h4.2l1.7-3.1H194l1.7,3.1h4.2
						l-8.7-15.5H186.5z"/>
					<defs>
						<filter id="Adobe_OpacityMaskFilter_7_" filterUnits="userSpaceOnUse" x="324.5" y="0.3" width="3.6" height="3.5">
							<feColorMatrix  type="matrix" values="1 0 0 0 0  0 1 0 0 0  0 0 1 0 0  0 0 0 1 0"/>
						</filter>
					</defs>
					<mask maskUnits="userSpaceOnUse" x="324.5" y="0.3" width="3.6" height="3.5" id="mask-2_8_">
						<g class="st15">
							<polygon id="path-1_8_" class="st0" points="-23.7,16 328.1,16 328.1,0.1 -23.7,0.1 							"/>
						</g>
					</mask>
					<path id="Fill-23" class="st16" d="M325.9,2h0.3c0.1,0,0.3,0,0.4-0.1c0.1-0.1,0.1-0.2,0.1-0.3c0-0.1,0-0.2-0.1-0.3
						c-0.1-0.1-0.2-0.1-0.4-0.1h-0.4V2z M325.7,3.1V1h0.6c0.2,0,0.4,0,0.5,0.1c0.1,0.1,0.2,0.2,0.2,0.4c0,0.2,0,0.3-0.1,0.4
						c-0.1,0.1-0.2,0.2-0.3,0.2l0.6,0.9h-0.3l-0.5-0.9h-0.4v0.9H325.7z M326.3,3.6c0.2,0,0.4,0,0.6-0.1c0.2-0.1,0.4-0.2,0.5-0.3
						s0.3-0.3,0.3-0.5c0.1-0.2,0.1-0.4,0.1-0.6c0-0.2,0-0.4-0.1-0.6c-0.1-0.2-0.2-0.4-0.3-0.5s-0.3-0.3-0.5-0.3
						c-0.2-0.1-0.4-0.1-0.6-0.1c-0.2,0-0.4,0-0.6,0.1c-0.2,0.1-0.4,0.2-0.5,0.3c-0.1,0.1-0.3,0.3-0.3,0.5c-0.1,0.2-0.1,0.4-0.1,0.6
						c0,0.2,0,0.4,0.1,0.6s0.2,0.4,0.3,0.5c0.1,0.1,0.3,0.3,0.5,0.3C325.8,3.6,326.1,3.6,326.3,3.6L326.3,3.6z M326.3,3.8
						c-0.3,0-0.5,0-0.7-0.1c-0.2-0.1-0.4-0.2-0.6-0.4c-0.2-0.2-0.3-0.3-0.4-0.6c-0.1-0.2-0.1-0.4-0.1-0.7c0-0.3,0-0.5,0.1-0.7
						s0.2-0.4,0.4-0.6c0.2-0.2,0.4-0.3,0.6-0.4s0.5-0.1,0.7-0.1c0.3,0,0.5,0,0.7,0.1c0.2,0.1,0.4,0.2,0.6,0.4s0.3,0.3,0.4,0.6
						c0.1,0.2,0.1,0.4,0.1,0.7c0,0.2,0,0.5-0.1,0.7c-0.1,0.2-0.2,0.4-0.4,0.6c-0.2,0.2-0.4,0.3-0.6,0.4
						C326.8,3.8,326.6,3.8,326.3,3.8L326.3,3.8z"/>
				</g>
			</g>
		</g>
	</g>
</g>
</svg>
