<?xml version="1.0" encoding="UTF-8"?>
<svg width="348px" height="282px" viewBox="0 0 348 282" version="1.1" xmlns="http://www.w3.org/2000/svg" xmlns:xlink="http://www.w3.org/1999/xlink">
    <!-- Generator: Sketch 61.2 (89653) - https://sketch.com -->
    <title>HARLEY-DAVIDSON_OUTLINE_RGB_BLACK</title>
    <desc>Created with Sketch.</desc>
    <defs>
        <polygon id="path-1" points="0 0.666 347.024 0.666 347.024 281.94 0 281.94"></polygon>
    </defs>
    <g id="HARLEY-DAVIDSON_OUTLINE_RGB_BLACK" stroke="none" stroke-width="1" fill="none" fill-rule="evenodd">
        <g id="Group-3">
            <mask id="mask-2" fill="white">
                <use xlink:href="#path-1"></use>
            </mask>
            <g id="Clip-2"></g>
            <path d="M21.434,166.61 L325.592,166.61 L325.592,118.627 L21.434,118.627 L21.434,166.61 Z M264.286,209.51 C264.286,209.51 225.031,245.427 173.512,258.389 C121.995,245.427 82.758,209.51 82.758,209.51 C94.455,202.49 98.401,193.428 99.717,187.815 L247.314,187.815 C248.639,193.428 252.574,202.49 264.286,209.51 Z M82.418,66.182 C82.418,66.182 126.646,68.508 173.512,33.59 C220.38,68.508 264.605,66.182 264.605,66.182 C250.265,80.77 247.878,92.41 247.587,97.42 L99.43,97.42 C99.145,92.41 96.765,80.77 82.418,66.182 Z M347.024,97.42 L270.786,97.42 C271.23,85.284 286.885,79.482 286.885,79.482 L286.885,48.223 C201.754,43.57 173.512,0.666 173.512,0.666 C173.512,0.666 145.271,43.57 60.143,48.223 L60.143,79.482 C60.143,79.482 75.794,85.284 76.241,97.42 L0,97.42 L0,187.815 L75.986,187.815 C71.643,203.399 49.993,207.347 49.993,207.347 C112.019,271.697 173.512,282 173.512,282 C173.512,282 235.014,271.697 297.031,207.347 C297.031,207.347 275.376,203.399 271.047,187.815 L347.024,187.815 L347.024,97.42 L347.024,97.42 Z" id="Fill-1" fill="#0A0B09" mask="url(#mask-2)"></path>
        </g>
        <path d="M307.468,211.792 C304.794,211.792 302.618,209.616 302.618,206.919 C302.618,204.245 304.794,202.064 307.468,202.064 C310.121,202.064 312.322,204.245 312.322,206.919 C312.322,209.616 310.121,211.792 307.468,211.792 Z M307.468,201.387 C304.431,201.387 301.936,203.88 301.936,206.919 C301.936,209.979 304.431,212.447 307.468,212.447 C310.484,212.447 312.979,209.979 312.979,206.919 C312.979,203.88 310.484,201.387 307.468,201.387 L307.468,201.387 Z" id="Fill-4" fill="#0A0B09"></path>
        <path d="M307.583,206.714 L306.016,206.714 L306.016,204.427 L307.583,204.427 C308.399,204.427 309.124,204.535 309.1,205.535 C309.077,206.556 308.422,206.714 307.583,206.714 Z M309.893,208.299 C309.874,207.894 309.802,207.598 309.688,207.416 C309.578,207.259 309.397,207.121 309.124,207.054 C309.758,206.762 310.05,206.194 310.05,205.512 C310.05,205.125 309.985,204.81 309.83,204.535 C309.397,203.697 308.533,203.628 307.741,203.628 L305.111,203.628 L305.111,210.389 L306.016,210.389 L306.016,207.507 L307.514,207.507 C307.539,207.507 307.539,207.507 307.559,207.507 C308.15,207.507 308.533,207.573 308.693,207.711 C308.851,207.846 308.966,208.142 308.987,208.596 L309.034,209.455 C309.034,209.707 309.077,210.16 309.214,210.389 L310.259,210.389 C310.079,210.113 310.007,209.774 309.963,209.436 L309.893,208.299 L309.893,208.299 Z" id="Fill-5" fill="#0A0B09"></path>
    </g>
</svg>